<svg xmlns="http://www.w3.org/2000/svg" width="32.64" height="32.658" viewBox="0 0 48.64 48.658">
  <g id="Group_111" data-name="Group 111" transform="translate(-60.58 -5535.891)">
    <path id="Path_1094" data-name="Path 1094" d="M95.11,5542.13a9.181,9.181,0,0,0-9.24,9.13h4.62a4.62,4.62,0,1,1,9.24,0c0,4.56-6.93,4-6.93,11.41h4.62c0-5.14,6.93-5.71,6.93-11.41a9.18,9.18,0,0,0-9.24-9.129Zm0,31.95a18.26,18.26,0,1,1,18.49-18.26,18.26,18.26,0,0,1-18.49,18.26Zm0-41.08a22.82,22.82,0,1,0,23.11,22.82A22.82,22.82,0,0,0,95.11,5533Zm-2.31,36.51h4.62V5565H92.8Z" transform="translate(-10.5 4.41)" fill="#fff"/>
    <path id="Path_1095" data-name="Path 1095" d="M95.11,5542.13a9.181,9.181,0,0,0-9.24,9.13h4.62a4.62,4.62,0,1,1,9.24,0c0,4.56-6.93,4-6.93,11.41h4.62c0-5.14,6.93-5.71,6.93-11.41a9.18,9.18,0,0,0-9.24-9.129Zm0,31.95a18.26,18.26,0,1,1,18.49-18.26,18.26,18.26,0,0,1-18.49,18.26Zm0-41.08a22.82,22.82,0,1,0,23.11,22.82A22.82,22.82,0,0,0,95.11,5533Zm-2.31,36.51h4.62V5565H92.8Z" transform="translate(-10.5 4.41)" fill="none" stroke="#292c2d" stroke-width="3"/>
  </g>
</svg>
