<svg xmlns="http://www.w3.org/2000/svg" width="150.011" height="30.51" viewBox="0 0 150.011 30.51">
  <g id="Group_90" data-name="Group 90" transform="translate(-195 -1163)">
    <path id="Path_38" data-name="Path 38" d="M342.84,1183.69a4,4,0,0,1,4-2,3.18,3.18,0,0,1,2.94,3.1s0,2.84-4,3H329.4V1163h-5.9v29.69h22c9.8-.14,9.51-7.81,9.51-7.81-.36-7.91-8.4-7.79-8.4-7.79a9.091,9.091,0,0,0-6.751,3l3,3.549" transform="translate(-10)" fill="#101010"/>
    <path id="Path_39" data-name="Path 39" d="M270.8,1177.23h3.92c5,0,5.89-3,5.89-4.58s-1.12-4.51-5.89-4.51H270.8ZM264.69,1163h10.12c3.79,0,6.15.64,8,2a9,9,0,0,1,3.87,7.2,9.85,9.85,0,0,1-3.16,7.12,11.261,11.261,0,0,1-5.48,2.45l9,11h-7.41l-8.74-11.38h-.08v11.38H264.7V1163Z" transform="translate(-10)" fill="#101010"/>
    <path id="Path_40" data-name="Path 40" d="M306.91,1181.67a7.19,7.19,0,0,0-7.17-7.08c-3.08,0-7.27,2.37-7.27,7a7.23,7.23,0,0,0,14.44,0m-20.37,0c0-6.76,6.11-11.94,13.2-11.94s13.1,5,13.1,11.86c0,7.32-6.24,12-13.1,12-7.36,0-13.2-5.47-13.2-11.87" transform="translate(-10)" fill="#101010"/>
    <rect id="Rectangle_9" data-name="Rectangle 9" width="5.93" height="29.76" transform="translate(304.84 1163)" fill="#101010"/>
    <path id="Path_41" data-name="Path 41" d="M217.31,1179.89h7.58l-3.75-9.13h-.08Zm1.42-16.89h4.77l13.82,29.76h-6.73l-3.52-7.68H215.26l-3.53,7.68H205Z" transform="translate(-10)" fill="#00aff0"/>
    <path id="Path_42" data-name="Path 42" d="M248.91,1188.58a7,7,0,1,0-7.31-7.16,7.2,7.2,0,0,0,7.31,7.16Zm12.8,4.18h-5.44V1190h-.09c-1.11,1.61-3.7,3.46-7.89,3.46-6.29,0-12.62-4.66-12.62-11.86,0-7.52,6.69-11.94,12.62-11.94a10,10,0,0,1,7.49,2.73V1163h5.93Z" transform="translate(-10)" fill="#00aff0"/>
  </g>
</svg>
