<svg xmlns="http://www.w3.org/2000/svg" width="128.491" height="30.321" viewBox="0 0 128.491 30.321">
  <g id="Group_92" data-name="Group 92" transform="translate(-653.06 -1163.99)">
    <g id="Group_91" data-name="Group 91">
      <path id="Path_35" data-name="Path 35" d="M667.24,1164h23.41a4.09,4.09,0,0,1,4.18,4v22.31a4.09,4.09,0,0,1-4.18,4H667.24a4.09,4.09,0,0,1-4.18-4V1168a4.08,4.08,0,0,1,4.18-4" transform="translate(-10)" fill="#5468ff"/>
      <path id="Path_36" data-name="Path 36" d="M679.31,1171.65a8.56,8.56,0,1,0,9,8.55,8.78,8.78,0,0,0-9-8.55m0,14.58a6,6,0,1,1,6.33-6,6.18,6.18,0,0,1-6.33,6m0-10.82v4.5a.19.19,0,0,0,.28.15l4.18-2.07a.16.16,0,0,0,.08-.24,5.25,5.25,0,0,0-4.34-2.51.18.18,0,0,0-.19.17m-5.87-3.29-.55-.53a1.43,1.43,0,0,0-1.95,0l-.66.62a1.28,1.28,0,0,0-.4.93,1.26,1.26,0,0,0,.4.93l.54.52a.2.2,0,0,0,.29,0,11.566,11.566,0,0,1,1-1.17,10.229,10.229,0,0,1,1.25-1,.16.16,0,0,0,0-.26m8.83-1.36v-1a1.35,1.35,0,0,0-1.38-1.32H677.6a1.35,1.35,0,0,0-1.38,1.32v1.06a.19.19,0,0,0,.24.18,10.55,10.55,0,0,1,5.5,0,.25.25,0,0,0,.17,0,.21.21,0,0,0,.07-.14" transform="translate(-10)" fill="#fff"/>
    </g>
    <path id="Path_37" data-name="Path 37" d="M742.6,1187.16q0,3.67-2,5.38c-1.32,1.14-3.34,1.7-6.07,1.7a27.037,27.037,0,0,1-4.71-.53l.61-2.84a24.8,24.8,0,0,0,4.16.35,4.74,4.74,0,0,0,3.24-.89,3.32,3.32,0,0,0,1-2.61v-.59a12,12,0,0,1-1.48.53,7.374,7.374,0,0,1-2.1.27,8.313,8.313,0,0,1-2.85-.47,5.92,5.92,0,0,1-2.21-1.38,6.161,6.161,0,0,1-1.43-2.27,12.652,12.652,0,0,1-.51-3.73,10.73,10.73,0,0,1,.54-3.46,6.57,6.57,0,0,1,1.6-2.42,7.351,7.351,0,0,1,2.53-1.56,9.658,9.658,0,0,1,3.43-.62,21.263,21.263,0,0,1,3.46.33,27.879,27.879,0,0,1,2.79.56v14.25Zm-10.49-7.09a6.4,6.4,0,0,0,1,3.87,3.62,3.62,0,0,0,2.7,1,5.846,5.846,0,0,0,1.69-.24,5,5,0,0,0,1.3-.56v-8.92a16.727,16.727,0,0,0-2.49-.3,3.849,3.849,0,0,0-3.15,1.35,6.091,6.091,0,0,0-1.09,3.75Zm28.4,0a8.27,8.27,0,0,1-.56,3.13,7.2,7.2,0,0,1-1.59,2.56,7,7,0,0,1-2.47,1.65,10.631,10.631,0,0,1-3.2.6,10.4,10.4,0,0,1-3.17-.6,7.288,7.288,0,0,1-2.47-1.65,7.669,7.669,0,0,1-1.6-2.56,8.08,8.08,0,0,1-.58-3.13,9.528,9.528,0,0,1,.56-3.37,7.489,7.489,0,0,1,1.63-2.55,7.052,7.052,0,0,1,2.47-1.63,8.239,8.239,0,0,1,3.14-.57,8.58,8.58,0,0,1,3.16.57,6.791,6.791,0,0,1,2.47,1.63,7.57,7.57,0,0,1,1.6,2.55,8.91,8.91,0,0,1,.61,3.37Zm-3.86,0a6.07,6.07,0,0,0-1-3.75,3.8,3.8,0,0,0-5.83,0,6.15,6.15,0,0,0-1,3.75,5.42,5.42,0,0,0,1,3.53,3.79,3.79,0,0,0,5.83,0,5.4,5.4,0,0,0,1-3.52Zm12.27,7.93c-6.19,0-6.19-4.76-6.19-5.52v-17.92l3.77-.57v17.81c0,.44,0,3.17,2.43,3.18v3Zm6.65,0h-3.79v-15.5l3.79-.57Zm-1.9-17.77a2.18,2.18,0,1,0-2.3-2.17,2.24,2.24,0,0,0,2.3,2.18ZM785,1172a9.839,9.839,0,0,1,3.15.44,5,5,0,0,1,2,1.23,4.851,4.851,0,0,1,1.07,2,8.827,8.827,0,0,1,.33,2.49v9.24c-.58.12-1.46.25-2.64.42a27.936,27.936,0,0,1-4,.25,12.25,12.25,0,0,1-2.67-.27,5.83,5.83,0,0,1-2.08-.85,4.269,4.269,0,0,1-1.34-1.52,5.57,5.57,0,0,1-.48-2.43,3.659,3.659,0,0,1,.54-2,4.481,4.481,0,0,1,1.48-1.49,6.559,6.559,0,0,1,2.16-.82,12.669,12.669,0,0,1,2.57-.25,8.528,8.528,0,0,1,1.31.07,12.225,12.225,0,0,1,1.47.25v-.58a4.1,4.1,0,0,0-.16-1.18,2.431,2.431,0,0,0-.54-1,2.38,2.38,0,0,0-1-.66,4.516,4.516,0,0,0-1.61-.28,15.686,15.686,0,0,0-2.39.22,12.083,12.083,0,0,0-1.77.41l-.46-2.95a16.215,16.215,0,0,1,2.09-.46A16.835,16.835,0,0,1,785,1172Zm.32,13a15.362,15.362,0,0,0,2.62-.17v-3.66a8.022,8.022,0,0,0-.91-.17,9.618,9.618,0,0,0-1.31-.09,7.827,7.827,0,0,0-1.27.09,4.049,4.049,0,0,0-1.15.32,2.138,2.138,0,0,0-.82.66,1.23,1.23,0,0,0-.31.88,1.69,1.69,0,0,0,.87,1.65,4.541,4.541,0,0,0,2.28.49Zm-74.54-13a9.819,9.819,0,0,1,3.14.44,5.18,5.18,0,0,1,2,1.23,4.722,4.722,0,0,1,1.07,2,8.8,8.8,0,0,1,.33,2.48v9.24c-.58.12-1.46.26-2.63.42a27.99,27.99,0,0,1-4,.25,13,13,0,0,1-2.68-.26,5.791,5.791,0,0,1-2.01-.8,4.18,4.18,0,0,1-1.34-1.52,5.519,5.519,0,0,1-.49-2.42,3.69,3.69,0,0,1,.54-2,4.481,4.481,0,0,1,1.48-1.49,6.8,6.8,0,0,1,2.16-.83,13.415,13.415,0,0,1,2.57-.25,12.235,12.235,0,0,1,1.31.08,12.585,12.585,0,0,1,1.47.25v-.59a4.538,4.538,0,0,0-.15-1.18,2.43,2.43,0,0,0-1.57-1.64,4.769,4.769,0,0,0-1.61-.27,14.529,14.529,0,0,0-2.39.22,12.11,12.11,0,0,0-1.77.41l-.46-3a16.2,16.2,0,0,1,2.09-.46,15.9,15.9,0,0,1,2.92-.24Zm.32,13a15.362,15.362,0,0,0,2.62-.17v-3.66a9.131,9.131,0,0,0-.91-.17,9.5,9.5,0,0,0-1.31-.09,8.756,8.756,0,0,0-1.26.09,3.872,3.872,0,0,0-1.15.32,2.071,2.071,0,0,0-.82.66,1.23,1.23,0,0,0-.31.88,1.71,1.71,0,0,0,.87,1.66,4.589,4.589,0,0,0,2.27.48Zm15.3,2.93c-6.18,0-6.18-4.76-6.18-5.52v-17.92L724,1164v17.81c0,.44,0,3.17,2.42,3.18Z" transform="translate(-10)" fill="#5468ff"/>
  </g>
</svg>
