<svg xmlns="http://www.w3.org/2000/svg" width="89.52" height="30.319" viewBox="0 0 89.52 30.319">
  <g id="Group_93" data-name="Group 93" transform="translate(-882.26 -1164.005)">
    <path id="Path_23" data-name="Path 23" d="M968.81,1170.06a6.49,6.49,0,0,1,.83-3.17,17.4,17.4,0,0,0-13.09-2.53,25.028,25.028,0,0,0-11.37,6.28c-.34.31-.73.76-.73.76l6.23,7,.61-.56a23.286,23.286,0,0,1,5.24-4.25,5.921,5.921,0,0,1,2.68-.92,6.9,6.9,0,0,1,6.58,3.43,5.86,5.86,0,0,1-.48,6.89,8.08,8.08,0,0,1-3.58,2.5,16.6,16.6,0,0,0,9.28-.94,8.26,8.26,0,0,0,5.15-7.5,7.27,7.27,0,0,1-7.35-7Zm-36.29,13.73c-1.74,1.18-3.53,2.29-5.89,1.77-3-.65-4.9-2.3-5.54-5a6,6,0,0,1,2.46-6.45,7.362,7.362,0,0,1,3.31-1.4,11.69,11.69,0,0,1,2.13,0,13.12,13.12,0,0,0-7.58-2.08c-4.57.06-7.38,1.78-9.07,5.69a9.569,9.569,0,0,0-1.06,4.93,14.4,14.4,0,0,0,6.22,9.85,16.911,16.911,0,0,0,16.25,2c3.68-1.35,6.55-4.24,9.22-6.8l-6.11-6.41a31.468,31.468,0,0,1-4.34,3.88Zm40.54.89a16.59,16.59,0,0,1-13.74,1.48,17.081,17.081,0,0,1-6.15-3.87,81.6,81.6,0,0,1-7.45-8,34.446,34.446,0,0,0-8.55-7.51,18.43,18.43,0,0,0-9.18-2.7,16.809,16.809,0,0,0-13.07,5.45,12,12,0,0,0-2.14,3.11,16.682,16.682,0,0,0-1.33,3.58c.13-.22.79-1.74.91-2a7.422,7.422,0,0,1,1-1.53,7.7,7.7,0,0,1,2.6-2.09,14.44,14.44,0,0,1,14.78,1.83c3.4,2.86,6.23,6.2,9.34,9.31a117.907,117.907,0,0,0,8.89,8.56,16.85,16.85,0,0,0,11,4c7.45-.07,13.91-4.61,15.84-11.26a7.282,7.282,0,0,0,.38-2.71,8.36,8.36,0,0,1-3.21,4.38Zm-72.18-20.47-8.62,8.29,4.26,3.56,3.1-2.14v20h9.19v-29.71Z" transform="translate(-10)" fill="#919fa1"/>
    <path id="Path_24" data-name="Path 24" d="M979.52,1165.39h0a2.071,2.071,0,0,1,.8.15,1.621,1.621,0,0,1,.61.4,2,2,0,0,1,.53,1.37,2.378,2.378,0,0,1,0,.6,2.217,2.217,0,0,1-.2.41,1.679,1.679,0,0,1-.28.31,1.5,1.5,0,0,1-.28.17h0a.769.769,0,0,1,.37.14,1.453,1.453,0,0,1,.36.38,2.16,2.16,0,0,1,.25.53,1.721,1.721,0,0,1,.1.6,2.439,2.439,0,0,1-.14.87,2.052,2.052,0,0,1-.41.7,2,2,0,0,1-.71.46,2.813,2.813,0,0,1-1,.17H977v-7.24Zm-.23,2.83h0a.66.66,0,0,0,.49-.19.61.61,0,0,0,.2-.48.629.629,0,0,0-.2-.5.69.69,0,0,0-.49-.18h-.8v1.37Zm.13,2.79a.781.781,0,0,0,.59-.23.9.9,0,0,0,.21-.61c0-.26-.07-.27-.22-.42a.83.83,0,0,0-.58-.21h-.93V1171h.93Zm-3.25-5.62v1.6H974.7v5.63h-1.54V1167h-1.51v-1.6Z" transform="translate(-10)" fill="#3390da"/>
  </g>
</svg>
