<svg xmlns="http://www.w3.org/2000/svg" width="158.318" height="36.601" viewBox="0 0 158.318 36.601">
  <g id="Group_95" data-name="Group 95" transform="translate(-1071.992 -1159.999)">
    <path id="Path_27" data-name="Path 27" d="M1154.89,1185.58a.76.76,0,0,1-.69-.38l-7.9-12.65v12.91h-1.8v-15.9a1.05,1.05,0,0,1,.92-1.14.77.77,0,0,1,.72.41l7.87,12.63V1168.6h1.8v15.87a1,1,0,0,1-.92,1.11" transform="translate(-10)" fill="#1a1918"/>
    <path id="Path_28" data-name="Path 28" d="M1169.78,1185.73a13.172,13.172,0,0,1-5.44-1.26l.43-1.82a14.3,14.3,0,0,0,5,1.09c2.27,0,3.46-1,3.46-2.38s-.92-1.9-4.09-3.72-4.42-3-4.42-5.27c0-2.86,1.8-4,5.2-4a16.666,16.666,0,0,1,4.82.81l-.28,1.87a16.869,16.869,0,0,0-4.51-.68c-2.39,0-3.37.55-3.37,1.94s.72,2,4.07,3.85c3.54,2,4.44,3,4.44,5.09,0,3-2.33,4.5-5.32,4.5" transform="translate(-10)" fill="#1a1918"/>
    <rect id="Rectangle_8" data-name="Rectangle 8" width="1.86" height="16.86" transform="translate(1173.62 1168.6)" fill="#1a1918"/>
    <path id="Path_29" data-name="Path 29" d="M1201.34,1185.46h-5.57a.85.85,0,0,1-.66-.33,1.28,1.28,0,0,1-.28-.81v-14.58a1.06,1.06,0,0,1,.94-1.14h4.6c2.83,0,4.5,1.69,4.5,4.35a4.441,4.441,0,0,1-1.76,3.57,4.24,4.24,0,0,1,2.64,4.11,4.53,4.53,0,0,1-4.42,4.83m-.92-14.94h-3.72v5.39h3.72a2.59,2.59,0,0,0,2.58-2.78,2.39,2.39,0,0,0-2.58-2.61m.91,7.29h-4.62v5.72h4.62c1.57,0,2.53-1.21,2.53-2.91a2.58,2.58,0,0,0-2.53-2.81" transform="translate(-10)" fill="#1a1918"/>
    <path id="Path_30" data-name="Path 30" d="M1214.69,1185.46a1.07,1.07,0,0,1-.92-1.14V1168.6h1.86v14.81h7.4v2Z" transform="translate(-10)" fill="#1a1918"/>
    <path id="Path_31" data-name="Path 31" d="M1235.72,1185.73c-3.8,0-6.1-1.72-6.1-5.19a4.28,4.28,0,0,1,2.23-3.94,4.5,4.5,0,0,1-1.8-3.62c0-3.14,2-4.63,5.71-4.63a18.491,18.491,0,0,1,4.48.58l-.21,1.87a23.3,23.3,0,0,0-4.42-.48c-2.41,0-3.7.81-3.7,2.76a2.72,2.72,0,0,0,2.76,2.77h3.19a.89.89,0,0,1,.8,1,.9.9,0,0,1-.8,1h-3.44a2.67,2.67,0,0,0-2.94,2.76c0,2.45,1.86,3.19,4.19,3.19a17.288,17.288,0,0,0,4.38-.61l.26,1.85a15.288,15.288,0,0,1-4.6.76" transform="translate(-10)" fill="#1a1918"/>
    <path id="Path_32" data-name="Path 32" d="M1136.44,1184l-5-14.93a.83.83,0,0,0-.78-.66.86.86,0,0,0-.8.66l-5.5,16.38h1.89l2.17-6.76,6.5,6.5a.923.923,0,0,0,1.62-.73,1.583,1.583,0,0,0-.09-.46Zm-5.78-12.25,3.25,10-4.92-4.8Z" transform="translate(-10)" fill="#1a1918"/>
    <g id="Group_94" data-name="Group 94">
      <path id="Path_33" data-name="Path 33" d="M1118.59,1178a18.3,18.3,0,1,1-18.29-18,18.3,18.3,0,0,1,18.29,18" transform="translate(-10)" fill="#1a1918"/>
      <path id="Path_34" data-name="Path 34" d="M1108.63,1184.88l-6.82-16.76a1.1,1.1,0,0,0-1-.74,1.151,1.151,0,0,0-1.09.74l-7.48,18.38h2.56l3-7.58,8.84,7.3a1.45,1.45,0,0,0,.94.43,1.25,1.25,0,0,0,1.26-1.25,2,2,0,0,0-.12-.52Zm-7.87-13.75,4.43,11.18-6.7-5.39,2.27-5.79Z" transform="translate(-10)" fill="#fff"/>
    </g>
  </g>
</svg>
