<svg xmlns="http://www.w3.org/2000/svg" width="132.45" height="35.18" viewBox="0 0 132.45 35.18">
  <g id="Group_97" data-name="Group 97" transform="translate(-1336.16 -1157.75)">
    <path id="Path_14" data-name="Path 14" d="M1386.54,1183.84v-15.99h2.06l9.81,12.87v-12.87h1.96v15.99h-2.07l-9.8-12.99v12.99Z" transform="translate(-10)" fill="#b52e31" fill-rule="evenodd"/>
    <path id="Path_15" data-name="Path 15" d="M1416.34,1183.21a12,12,0,0,1-4.18.73c-5.81,0-8.71-2.76-8.71-8.32,0-5.25,2.8-7.89,8.4-7.89a14.722,14.722,0,0,1,4.49.66v1.77a11.77,11.77,0,0,0-4.26-.78c-4.38,0-6.57,2.08-6.57,6.19,0,4.44,2.17,6.65,6.47,6.65a11.053,11.053,0,0,0,2.29-.28v-5.36h2.07Z" transform="translate(-10)" fill="#b52e31" fill-rule="evenodd"/>
    <path id="Path_16" data-name="Path 16" d="M1419.65,1177.68v-9.83h2.06v9.82c0,3.08,1.53,4.63,4.61,4.63s4.61-1.55,4.61-4.63v-9.82H1433v9.82c0,4.19-2.22,6.3-6.67,6.3s-6.68-2.11-6.68-6.3Z" transform="translate(-10)" fill="#b52e31" fill-rule="evenodd"/>
    <path id="Path_17" data-name="Path 17" d="M1438.74,1167.85v14.32h8.41v1.67h-10.47v-15.99Z" transform="translate(-10)" fill="#b52e31" fill-rule="evenodd"/>
    <path id="Path_18" data-name="Path 18" d="M1450.13,1183.84h-2.17l7.97-18.09,7.98,18.09h-2.29l-2.07-5.02h-5.29l.56-1.68h4.05l-3.01-7.23Z" transform="translate(-10)" fill="#b52e31" fill-rule="evenodd"/>
    <path id="Path_19" data-name="Path 19" d="M1466.12,1183.84v-16H1473c3.06,0,4.59,1.27,4.59,3.84,0,2.08-1.5,3.62-4.48,4.62l5.5,7.53h-2.73l-5.09-7.18v-1.35c3.06-.48,4.61-1.65,4.61-3.52,0-1.48-.84-2.21-2.55-2.21h-4.58v14.26Z" transform="translate(-10)" fill="#b52e31" fill-rule="evenodd"/>
    <g id="Group_96" data-name="Group 96">
      <path id="Path_20" data-name="Path 20" d="M1346.16,1163.59l17.29-5.84,17.75,5.74-2.87,21.65-14.87,7.79-14.64-7.69Z" transform="translate(-10)" fill="#e23237" fill-rule="evenodd"/>
      <path id="Path_21" data-name="Path 21" d="M1381.2,1163.49l-17.75-5.74v35.18l14.88-7.79,2.87-21.66Z" transform="translate(-10)" fill="#b52e31" fill-rule="evenodd"/>
      <path id="Path_22" data-name="Path 22" d="M1363.51,1169.15l3.64,7.21h-6.84Zm0-7.29-10.78,22.69,4-.07,2.18-5.13h9.62l2.36,5.18,3.83.08-11.23-22.75Z" transform="translate(-10)" fill="#fff" fill-rule="evenodd"/>
    </g>
  </g>
</svg>
