<svg xmlns="http://www.w3.org/2000/svg" width="107.743" height="39.29" viewBox="0 0 107.743 39.29">
  <path id="Path_43" data-name="Path 43" d="M559.05,1166.91a4.07,4.07,0,0,1,3.81,4.29v17.09h-7.92v-14.81a1.17,1.17,0,0,0-1.09-1.23h-2.08v16h-7.92v-21.38Zm-22.18,0a4.07,4.07,0,0,1,3.81,4.29v4.8a4.07,4.07,0,0,1-3.81,4.29h-4.11v-6.79a1.17,1.17,0,0,0-1.09-1.23h-2.08v9.47a1.16,1.16,0,0,0,1.09,1.22h9.73v5.35H525.48a4.07,4.07,0,0,1-3.81-4.29v-17.09Zm-26.29,16v-16h7.92v26a4.07,4.07,0,0,1-3.81,4.29H499.76V1191h10.82v-2.68H503.3a4.07,4.07,0,0,1-3.81-4.29v-17.09h7.92v14.81a1.17,1.17,0,0,0,1.09,1.23Zm-22.18,0v-25h7.92v30.29h-15.2a4.07,4.07,0,0,1-3.81-4.29v-12.8a4.07,4.07,0,0,1,3.81-4.29h4.11v14.81a1.17,1.17,0,0,0,1.09,1.23Zm-18.07-16a4.07,4.07,0,0,1,3.81,4.29v17.09h-15.2a4.07,4.07,0,0,1-3.81-4.29v-4.78a4.07,4.07,0,0,1,3.81-4.29h4.11v6.79a1.17,1.17,0,0,0,1.09,1.23h2.08v-9.47a1.17,1.17,0,0,0-1.09-1.23H455.4v-5.34Z" transform="translate(-455.123 -1157.91)" fill="#32aa52"/>
</svg>
