<svg xmlns="http://www.w3.org/2000/svg" width="26.92" height="26.94" viewBox="0 0 44.92 45.94">
  <g id="Group_112" data-name="Group 112" transform="translate(-59.54 -5471.41)">
    <path id="Path_1090" data-name="Path 1090" d="M83.43,5471.69a11.8,11.8,0,0,1,2.69,3.891c.61,1.629,1.66,6.689.42,9.25-1.4,2.9-5.45,3.87-5.45,6.54,0,2,1.78,4.3,2.73,6.54a11.75,11.75,0,0,1,0,8.72,7.132,7.132,0,0,1-1.81,2.63" transform="translate(-10.5 4.41)" fill="none" stroke="#fff" stroke-linecap="round" stroke-linejoin="round" stroke-width="2"/>
    <path id="Path_1091" data-name="Path 1091" d="M108.78,5475.76c-2.94,1.41-5.4,3.16-7,2.74-1.85-.47-1.69-2.09-2.78-3.75-.82-1.24-3.37-2.1-3.37-3.39a4.108,4.108,0,0,1,.18-1.31" transform="translate(-10.5 4.41)" fill="none" stroke="#fff" stroke-linecap="round" stroke-linejoin="round" stroke-width="2"/>
    <path id="Path_1092" data-name="Path 1092" d="M105.08,5494.13c.06,4.2-5.8,10.12-8.2,8.31-2-1.54-.24-2.48-1.35-8.31-.42-2.22,2.14-4.09,4.78-4.09S105.05,5491.87,105.08,5494.13Z" transform="translate(-10.5 4.41)" fill="none" stroke="#fff" stroke-linecap="round" stroke-linejoin="round" stroke-width="2"/>
    <path id="Path_1093" data-name="Path 1093" d="M92.5,5468a13.583,13.583,0,0,1,2.11.11q1.047.1,2.08.311a19.905,19.905,0,0,1,2,.529c.67.21,1.34.45,2,.72a19.719,19.719,0,0,1,1.91.93,20.659,20.659,0,0,1,1.8,1.11c.59.4,1.16.83,1.7,1.28a21.141,21.141,0,0,1,1.56,1.45,17.669,17.669,0,0,1,1.42,1.6,21.83,21.83,0,0,1,2.34,3.59c.33.629.63,1.29.9,1.95a21.15,21.15,0,0,1,.71,2,21.422,21.422,0,0,1,.52,2.1c.13.7.24,1.42.31,2.13s.1,1.44.1,2.16a15.623,15.623,0,0,1-.1,2.16c-.1.72-.18,1.42-.31,2.13a21.464,21.464,0,0,1-.52,2.1q-.305,1.017-.71,2a20.575,20.575,0,0,1-.9,1.951,21.8,21.8,0,0,1-2.34,3.59c-.45.55-.92,1.09-1.42,1.6a17.841,17.841,0,0,1-1.56,1.45c-.56.45-1.11.88-1.7,1.28a20.663,20.663,0,0,1-1.8,1.11c-.63.34-1.26.65-1.91.93a24.2,24.2,0,0,1-4,1.25,20.892,20.892,0,0,1-2.08.31c-.7.07-1.41.11-2.11.11a13.583,13.583,0,0,1-2.11-.11,20.894,20.894,0,0,1-2.08-.31,19.775,19.775,0,0,1-2-.53c-.67-.21-1.34-.45-2-.72a19.719,19.719,0,0,1-1.91-.93,20.661,20.661,0,0,1-1.8-1.11c-.59-.4-1.16-.83-1.7-1.28a21.141,21.141,0,0,1-1.56-1.45,17.669,17.669,0,0,1-1.42-1.6,21.805,21.805,0,0,1-2.34-3.59q-.5-1-.9-1.95-.4-.982-.71-2a21.489,21.489,0,0,1-.52-2.1c-.13-.71-.24-1.42-.31-2.13s-.1-1.44-.1-2.16a15.623,15.623,0,0,1,.1-2.16c.1-.72.18-1.43.31-2.13a21.77,21.77,0,0,1,1.23-4.1c.27-.66.57-1.319.9-1.95a21.823,21.823,0,0,1,2.34-3.589c.45-.55.92-1.09,1.42-1.6a17.841,17.841,0,0,1,1.56-1.45c.56-.45,1.11-.88,1.7-1.28a20.664,20.664,0,0,1,1.8-1.11c.63-.34,1.26-.65,1.91-.93a24.132,24.132,0,0,1,4-1.25,20.752,20.752,0,0,1,2.08-.311A13.644,13.644,0,0,1,92.5,5468Z" transform="translate(-10.5 4.41)" fill="none" stroke="#fff" stroke-linecap="round" stroke-linejoin="round" stroke-width="2"/>
  </g>
</svg>
